<?xml version="1.0" encoding="UTF-8"?>
<!DOCTYPE svg PUBLIC "-//W3C//DTD SVG 1.1//EN" "http://www.w3.org/Graphics/SVG/1.1/DTD/svg11.dtd">
<!-- Creator: CorelDRAW 2018 (64-Bit) -->
<svg xmlns="http://www.w3.org/2000/svg" xml:space="preserve" width="555px" height="939px" version="1.1" style="shape-rendering:geometricPrecision; text-rendering:geometricPrecision; image-rendering:optimizeQuality; fill-rule:evenodd; clip-rule:evenodd"
viewBox="0 0 218.09 369.03"
 xmlns:xlink="http://www.w3.org/1999/xlink">
 <defs>
  <style type="text/css">
   <![CDATA[
    .fil0 {fill:#1C1C1C}
   ]]>
  </style>
 </defs>
 <g id="Layer_x0020_1">
  <metadata id="CorelCorpID_0Corel-Layer"/>
  <path class="fil0" d="M0 183.56c0,7.98 1.87,13.5 5.73,19.03 1.79,2.55 3.61,3.9 5.33,6.06l28.53 28.84c15.42,15.42 30.55,30.56 45.97,45.98l74.66 74.27c7.6,7.59 13.16,11.29 26.04,11.29 9,0 17.5,-5.1 22.1,-9.72 3.16,-3.17 4.58,-5.16 6.72,-9.4 1.88,-3.73 2.87,-8.3 3.01,-12.9l0 -2.3c-0.15,-4.7 -1.17,-9.3 -3.01,-12.96 -2.39,-4.74 -3.96,-7.03 -7.51,-10.58l-27.11 -27.11c-1.67,-1.69 -3.06,-2.65 -4.72,-4.32 -1.59,-1.61 -2.91,-2.92 -4.51,-4.52l-72.5 -72.5c-3.11,-3.11 -5.92,-5.95 -9.04,-9.04 -1.34,-1.33 -8.45,-8.63 -8.74,-9.73 1.14,-1.7 2.74,-2.95 4.38,-4.26l67.62 -67.55c12.09,-12.08 23.88,-23.87 35.96,-35.95 5.98,-5.98 12.39,-11.92 18.08,-18.07 6.77,-7.33 11.1,-14.38 11.1,-25.45 0,-9.65 -4.42,-17.6 -9.34,-22.5 -2.97,-2.95 -4.99,-4.72 -9,-6.71 -10.75,-5.35 -24.52,-4.48 -33.88,2.54 -2.34,1.75 -3.91,3.39 -6.03,5.36 -8.23,7.61 -15.06,14.65 -23,22.59 -1.07,1.08 -1.87,1.86 -2.95,2.94l-48.72 48.73c-7.7,7.7 -15.28,14.89 -22.99,22.59 -3.89,3.9 -7.49,7.51 -11.39,11.4 -2.04,2.03 -3.45,3.84 -5.5,5.89l-28.49 28.89c-1.82,1.81 -4.09,3.81 -5.68,5.71l-5.29 6.11c-2.26,3.29 -5.83,11.96 -5.83,17.35z"/>
 </g>
</svg>
