<?xml version="1.0" encoding="UTF-8"?>
<!DOCTYPE svg PUBLIC "-//W3C//DTD SVG 1.1//EN" "http://www.w3.org/Graphics/SVG/1.1/DTD/svg11.dtd">
<!-- Creator: CorelDRAW 2018 (64-Bit) -->
<svg xmlns="http://www.w3.org/2000/svg" xml:space="preserve" width="555px" height="939px" version="1.1" style="shape-rendering:geometricPrecision; text-rendering:geometricPrecision; image-rendering:optimizeQuality; fill-rule:evenodd; clip-rule:evenodd"
viewBox="0 0 2224.95 3766.75"
 xmlns:xlink="http://www.w3.org/1999/xlink">
 <defs>
  <style type="text/css">
   <![CDATA[
    .fil0 {fill:#1C1C1C}
   ]]>
  </style>
 </defs>
 <g id="Layer_x0020_1">
  <metadata id="CorelCorpID_0Corel-Layer"/>
  <path class="fil0" d="M0 308.88c0,99.57 11.28,168.38 77.11,243.8 8.58,9.83 10.41,14.28 20.09,24.04l112.4 116.26c8.33,8.33 13.66,13.73 22,22.12l72.27 68.14c87.96,87.95 163.19,160.53 246.65,250.76 8.28,8.95 15.36,15.26 24.12,24.02l825.35 819.33c-14.66,21.89 -241.34,251.37 -265.76,275.79 -31.73,31.74 -60.52,60.53 -92.26,92.26l-912.6 908.6c-33.88,33.88 -57.93,53.5 -83.57,96.94 -40.15,68.04 -45.28,104.27 -45.8,165.09l0 41.58 0 4.27c0,158 166.17,304.87 324.93,304.87 99.29,0 168.15,-24.07 231.58,-85.33 11.87,-11.46 19.9,-15.52 32.21,-27.96l882.48 -878.55c20.23,-20.23 38.42,-37.49 58.24,-58.08 11.47,-11.92 15.52,-19.9 27.97,-32.21 11.04,-10.92 19.11,-19.05 30.12,-30.05l469.33 -469.34c38.75,-38.74 80.12,-75.3 110.94,-121.73 79.9,-120.38 71.22,-232.96 3.71,-355.95 -8.37,-15.26 -13.34,-19.95 -24.38,-31.78l-86.22 -94.29c-79.8,-78.91 -153.35,-157.29 -232.7,-236.64l-1056.83 -1053.19c-10.9,-13.04 -13.94,-17.71 -26.25,-29.91l-150.36 -146.49c-88.39,-85.09 -154.22,-115.25 -285.89,-115.25 -109.1,0 -225.83,86.08 -275.55,185.76 -14.39,28.85 -33.33,82.21 -33.33,123.12z"/>
 </g>
</svg>
