<?xml version="1.0" encoding="UTF-8"?>
<!DOCTYPE svg PUBLIC "-//W3C//DTD SVG 1.1//EN" "http://www.w3.org/Graphics/SVG/1.1/DTD/svg11.dtd">
<!-- Creator: CorelDRAW 2018 (64-Bit) -->
<svg xmlns="http://www.w3.org/2000/svg" xml:space="preserve" width="159px" height="109px" version="1.1" style="shape-rendering:geometricPrecision; text-rendering:geometricPrecision; image-rendering:optimizeQuality; fill-rule:evenodd; clip-rule:evenodd"
viewBox="0 0 36.61 24.98"
 xmlns:xlink="http://www.w3.org/1999/xlink">
 <defs>
  <style type="text/css">
   <![CDATA[
    .fil1 {fill:#FEFEFE;fill-rule:nonzero}
    .fil0 {fill:#898989;fill-rule:nonzero}
   ]]>
  </style>
 </defs>
 <g id="Layer_x0020_1">
  <metadata id="CorelCorpID_0Corel-Layer"/>
  <g id="_2018277192464">
   <path class="fil0" d="M36.61 12.59c0,0.71 -0.21,1.31 -0.64,1.8 -0.42,0.49 -1,0.73 -1.75,0.73 -12.56,0 -19.07,0 -31.64,0 -0.68,0 -1.28,-0.22 -1.8,-0.66 -0.52,-0.43 -0.78,-1.01 -0.78,-1.72 0,-1.66 0.94,-2.48 2.82,-2.48 11.57,0 18.92,0 31.11,0 1.78,0 2.68,0.78 2.68,2.33z"/>
   <path class="fil0" d="M4.03 11.17c-1.38,-0.94 -2.49,-0.82 -3.31,0.39 -0.41,0.59 -0.54,1.21 -0.41,1.87 0.14,0.65 0.5,1.18 1.09,1.59 8.63,5.92 4.65,3.19 13.68,9.38 0.62,0.42 1.28,0.61 1.99,0.57 0.7,-0.04 1.26,-0.36 1.66,-0.95 0.87,-1.25 0.5,-2.43 -1.09,-3.51 -8.91,-6.12 -4.98,-3.42 -13.61,-9.34z"/>
   <g>
    <path class="fil0" d="M4.03 13.8c-1.38,0.95 -2.49,0.82 -3.31,-0.38 -0.41,-0.59 -0.54,-1.21 -0.41,-1.87 0.14,-0.66 0.5,-1.19 1.09,-1.59 8.63,-5.92 4.65,-3.19 13.68,-9.39 0.62,-0.42 1.28,-0.61 1.99,-0.56 0.7,0.04 1.26,0.35 1.66,0.94 0.87,1.26 0.5,2.43 -1.09,3.52 -8.91,6.11 -4.98,3.42 -13.61,9.33z"/>
    <path class="fil1" d="M2.84 13.38c0.1,-0.07 0.17,-0.19 0.2,-0.37l-0.07 -0.18c-0.03,-0.05 -0.13,-0.13 -0.3,-0.24 -0.17,-0.11 -0.29,-0.21 -0.36,-0.32 -0.2,-0.28 -0.06,-0.58 0.4,-0.89l2.77 -1.9c0.3,-0.21 0.34,-0.48 0.12,-0.82 -0.18,-0.25 -0.42,-0.28 -0.73,-0.07l-2.69 1.85c-0.41,0.28 -0.71,0.66 -0.88,1.14 -0.18,0.48 -0.14,0.92 0.12,1.3 0.16,0.23 0.38,0.41 0.68,0.53 0.29,0.12 0.53,0.11 0.74,-0.03z"/>
    <path class="fil1" d="M12.17 4.89l3 -2.05c0.33,-0.23 0.38,-0.51 0.15,-0.85 -0.17,-0.25 -0.4,-0.28 -0.68,-0.09l-3.08 2.11c-0.31,0.21 -0.36,0.47 -0.15,0.78 0.2,0.28 0.45,0.31 0.76,0.1z"/>
    <path class="fil1" d="M16.59 1.86c0.25,-0.17 0.28,-0.42 0.07,-0.72 -0.2,-0.29 -0.42,-0.34 -0.68,-0.16 -0.28,0.19 -0.33,0.43 -0.13,0.71 0.21,0.31 0.46,0.36 0.74,0.17z"/>
   </g>
   <path class="fil1" d="M28.31 12.52l4.49 -0.09c0.5,-0.02 0.75,-0.27 0.74,-0.77 -0.01,-0.38 -0.23,-0.57 -0.65,-0.56l-4.61 0.09c-0.46,0.01 -0.69,0.25 -0.68,0.71 0.01,0.42 0.25,0.63 0.71,0.62z"/>
   <path class="fil1" d="M34.94 12.38c0.38,-0.01 0.57,-0.24 0.56,-0.7 -0.01,-0.43 -0.21,-0.63 -0.59,-0.62 -0.42,0 -0.63,0.22 -0.62,0.64 0.01,0.46 0.22,0.69 0.65,0.68z"/>
  </g>
 </g>
</svg>
