<?xml version="1.0" encoding="UTF-8"?>
<!DOCTYPE svg PUBLIC "-//W3C//DTD SVG 1.1//EN" "http://www.w3.org/Graphics/SVG/1.1/DTD/svg11.dtd">
<!-- Creator: CorelDRAW 2018 (64-Bit) -->
<svg xmlns="http://www.w3.org/2000/svg" xml:space="preserve" width="130px" height="125px" version="1.1" style="shape-rendering:geometricPrecision; text-rendering:geometricPrecision; image-rendering:optimizeQuality; fill-rule:evenodd; clip-rule:evenodd"
viewBox="0 0 35.26 33.95"
 xmlns:xlink="http://www.w3.org/1999/xlink">
 <defs>
  <style type="text/css">
   <![CDATA[
    .fil0 {fill:#898989;fill-rule:nonzero}
   ]]>
  </style>
 </defs>
 <g id="Layer_x0020_1">
  <metadata id="CorelCorpID_0Corel-Layer"/>
  <path class="fil0" d="M35.26 16.98c0,0.96 -0.28,1.76 -0.85,2.42 -0.56,0.65 -1.35,0.98 -2.35,0.98l-11.16 0 0 10.04c0,2.35 -1.02,3.53 -3.07,3.53 -1.01,0 -1.83,-0.33 -2.49,-1.01 -0.65,-0.68 -0.98,-1.52 -0.98,-2.52l0 -10.04 -10.89 0c-0.92,0 -1.73,-0.3 -2.42,-0.88 -0.7,-0.59 -1.05,-1.37 -1.05,-2.33 0,-2.22 1.26,-3.33 3.79,-3.33l10.57 0 0 -9.91c0,-1.05 0.31,-1.97 0.92,-2.75 0.61,-0.79 1.41,-1.18 2.42,-1.18 2.13,0 3.2,1.35 3.2,4.06l0 9.78 10.76 0c2.4,0 3.6,1.04 3.6,3.14zm-18.22 -13.77c0,-0.44 -0.26,-0.66 -0.78,-0.66 -0.48,0 -0.72,0.22 -0.72,0.66 0,0.48 0.24,0.72 0.72,0.72 0.52,0 0.78,-0.24 0.78,-0.72zm0 9.12l0 -6.7c0,-0.57 -0.28,-0.85 -0.85,-0.85 -0.43,0 -0.65,0.24 -0.65,0.72l0 6.83c0,0.52 0.26,0.79 0.78,0.79 0.48,0 0.72,-0.27 0.72,-0.79zm2.42 19.14c0,-0.18 -0.08,-0.35 -0.26,-0.53l-0.26 -0.06c-0.08,-0.02 -0.26,0.05 -0.52,0.16 -0.27,0.11 -0.48,0.17 -0.66,0.17 -0.48,0 -0.72,-0.4 -0.72,-1.18l0 -6.31c0,-0.53 -0.28,-0.79 -0.85,-0.79 -0.43,0 -0.65,0.26 -0.65,0.79l0 6.18c0,0.69 0.21,1.34 0.62,1.93 0.41,0.58 0.95,0.88 1.6,0.88 0.39,0 0.78,-0.12 1.15,-0.36 0.37,-0.24 0.55,-0.53 0.55,-0.88zm-14.49 -15.93c-0.13,-0.53 -0.43,-0.79 -0.91,-0.79 -1.92,0 -2.88,0.83 -2.88,2.49 0,1.05 0.35,1.57 1.04,1.57 0.48,0 0.72,-0.18 0.72,-0.52 -0.3,-0.83 -0.45,-1.2 -0.45,-1.12 0,-0.52 0.4,-0.85 1.21,-0.98 0.8,-0.13 1.23,-0.35 1.27,-0.65z"/>
 </g>
</svg>
